<?xml version="1.0" standalone="no"?>
<!DOCTYPE svg PUBLIC "-//W3C//DTD SVG 20010904//EN"
 "http://www.w3.org/TR/2001/REC-SVG-20010904/DTD/svg10.dtd">
<svg version="1.0" xmlns="http://www.w3.org/2000/svg"
 width="696.000000pt" height="564.000000pt" viewBox="0 0 696.000000 564.000000"
 preserveAspectRatio="xMidYMid meet">
<metadata>
Created by potrace 1.15, written by Peter Selinger 2001-2017
</metadata>
<g transform="translate(0.000000,564.000000) scale(0.100000,-0.100000)"
fill="#000000" stroke="none">
<path d="M2586 4233 l-29 -5 5 -627 6 -628 -174 -158 c-154 -139 -173 -160
-161 -174 7 -9 43 -52 80 -97 36 -44 91 -102 122 -129 l56 -48 40 39 39 38 0
-267 0 -267 190 0 190 0 0 38 0 37 82 -77 82 -78 36 33 c19 19 141 131 271
250 l236 216 110 -197 110 -197 64 -7 c35 -4 133 -4 217 -1 l152 6 0 496 0
497 251 229 c138 127 264 241 280 255 l29 25 -75 95 c-69 88 -176 189 -200
189 -5 0 -71 -56 -145 -124 l-135 -123 -3 379 -2 379 -183 0 -183 0 -308 -281
c-169 -154 -309 -279 -312 -277 -2 3 -73 130 -158 284 l-154 279 -198 1 c-110
1 -212 -1 -228 -3z m1298 -1155 c-25 -24 -50 -44 -55 -46 -14 -6 -266 205
-288 242 l-21 34 57 55 c32 29 123 113 203 186 l145 132 3 -280 2 -280 -46
-43z m-880 293 l-49 -44 -7 84 c-3 46 -6 111 -7 144 l-1 60 56 -100 57 -99
-49 -45z m350 -497 c53 -95 96 -176 96 -182 0 -8 -374 -358 -478 -446 l-22
-19 0 281 0 281 147 135 c81 75 151 132 154 128 4 -4 50 -84 103 -178z"/>
</g>
</svg>
